<svg width="30" height="32" viewBox="0 0 30 32" fill="none" xmlns="http://www.w3.org/2000/svg">
    <path d="M29.8699 5.10669C28.9878 3.58244 27.72 2.30406 26.204 1.40981C24.6404 0.4875 22.8496 0 21.0251 0C19.2007 0 17.4097 0.4875 15.8462 1.40981C14.33 2.30412 13.0624 3.5825 12.1803 5.10669C12.0002 5.41788 12.0139 5.8045 12.2155 6.10213L16.2475 12.0536C16.2709 12.0519 16.2942 12.05 16.318 12.05H19.2222L18.6294 10.2714C18.4657 9.78025 18.7312 9.24931 19.2224 9.08556C19.7136 8.92194 20.2445 9.18738 20.4082 9.6785L21.0251 11.5292L21.642 9.6785C21.8057 9.18731 22.3365 8.92181 22.8279 9.08556C23.319 9.24931 23.5845 9.78019 23.4208 10.2714L22.828 12.05H25.7322C25.756 12.05 25.7794 12.0518 25.8028 12.0536L29.8347 6.10213C30.0362 5.8045 30.0499 5.41788 29.8699 5.10669Z" fill="#388FF3"/>
    <path d="M17.075 30.0584C17.075 31.129 17.946 32 19.0166 32H23.0333C24.104 32 24.975 31.129 24.975 30.0584V13.925H17.075V30.0584Z" fill="#388FF3"/>
    <path d="M1.0083 11.9167H9.91249V21.0875H1.0083V11.9167Z" fill="#388FF3"/>
    <path d="M0.00415039 30.0584C0.00415039 31.129 0.87515 32 1.94578 32H8.97503C10.0457 32 10.9167 31.129 10.9167 30.0584V22.9625H0.00415039V30.0584Z" fill="#388FF3"/>
    <path d="M8.90833 1.94163C8.90833 1.00925 8.24301 0.30619 7.36083 0.30619C7.13776 0.30619 6.91214 0.35119 6.69033 0.440003L3.53414 1.70244C2.66664 2.04944 2.01245 3.01569 2.01245 3.95V10.0417H8.90833V1.94163Z" fill="#388FF3"/>
</svg>
