<svg width="20" height="20" viewBox="0 0 20 20" fill="none" xmlns="http://www.w3.org/2000/svg">
    <path d="M17.2194 15.6425C17.2194 15.6425 16.2539 16.5908 16.0173 16.8688C15.6318 17.2802 15.1777 17.4744 14.5823 17.4744C14.525 17.4744 14.464 17.4744 14.4067 17.4706C13.2733 17.3982 12.2199 16.9564 11.4299 16.5794C9.26985 15.5358 7.37309 14.0543 5.79691 12.1766C4.49551 10.6113 3.62537 9.16399 3.04909 7.61008C2.69416 6.66173 2.56441 5.92286 2.62165 5.22588C2.65982 4.78027 2.83155 4.41084 3.14832 4.09472L4.44971 2.79599C4.63672 2.62079 4.83517 2.52557 5.02981 2.52557C5.27024 2.52557 5.46488 2.6703 5.58701 2.79218C5.59082 2.79599 5.59464 2.79979 5.59846 2.8036C5.83126 3.02069 6.05261 3.2454 6.28541 3.48535C6.40372 3.60722 6.52584 3.7291 6.64797 3.85478L7.68985 4.89453C8.09439 5.29825 8.09439 5.67149 7.68985 6.07521C7.57917 6.18566 7.47231 6.2961 7.36164 6.40275C7.04106 6.73029 7.29289 6.47897 6.96087 6.77604C6.95323 6.78366 6.9456 6.78747 6.94178 6.79508C6.61357 7.12262 6.67463 7.44255 6.74333 7.65964C6.74715 7.67106 6.75096 7.68249 6.75478 7.69392C7.02574 8.349 7.40739 8.96599 7.98748 9.70106L7.9913 9.70487C9.04463 10.9998 10.1552 12.0091 11.3803 12.7822C11.5367 12.8813 11.697 12.9612 11.8497 13.0374C11.9871 13.106 12.1168 13.1707 12.2275 13.2393C12.2428 13.2469 12.258 13.2583 12.2733 13.2659C12.4031 13.3307 12.5252 13.3611 12.6511 13.3611C12.9679 13.3611 13.1664 13.1631 13.2312 13.0983L13.9793 12.3518C14.1091 12.2223 14.3151 12.0662 14.5556 12.0662C14.7922 12.0662 14.9868 12.2147 15.1051 12.3442C15.109 12.348 15.109 12.348 15.1128 12.3518L17.2156 14.4504C17.6087 14.8388 17.2194 15.6425 17.2194 15.6425Z" stroke="white" stroke-width="2" stroke-linecap="round" stroke-linejoin="round"/>
</svg>
